<svg width="24" height="24" viewBox="0 0 24 24" fill="none" xmlns="http://www.w3.org/2000/svg">
<path d="M13.2 15.99L21 7.68003C21.0204 7.6645 21.0343 7.64207 21.0393 7.61695C21.0443 7.59184 21.0399 7.56578 21.027 7.54367C21.0141 7.52156 20.9936 7.50492 20.9693 7.49689C20.945 7.48885 20.9186 7.48997 20.895 7.50003H3.10502C3.08148 7.48997 3.05508 7.48885 3.03078 7.49689C3.00647 7.50492 2.98594 7.52156 2.97304 7.54367C2.96015 7.56578 2.95577 7.59184 2.96074 7.61695C2.9657 7.64207 2.97967 7.6645 3.00002 7.68003L10.8 15.99C10.9543 16.1535 11.1403 16.2837 11.3466 16.3727C11.5529 16.4617 11.7753 16.5076 12 16.5076C12.2247 16.5076 12.4471 16.4617 12.6534 16.3727C12.8598 16.2837 13.0458 16.1535 13.2 15.99Z" fill="#666666" fill-opacity="0.9"/>
</svg>
