<svg width="24" height="24" viewBox="0 0 24 24" fill="none" xmlns="http://www.w3.org/2000/svg">
<path d="M14 12C14 12.3956 13.8827 12.7822 13.6629 13.1111C13.4432 13.44 13.1308 13.6964 12.7654 13.8478C12.3999 13.9991 11.9978 14.0387 11.6098 13.9616C11.2219 13.8844 10.8655 13.6939 10.5858 13.4142C10.3061 13.1345 10.1156 12.7781 10.0384 12.3902C9.96126 12.0022 10.0009 11.6001 10.1522 11.2346C10.3036 10.8692 10.56 10.5568 10.8889 10.3371C11.2178 10.1173 11.6044 10 12 10C12.5304 10 13.0391 10.2107 13.4142 10.5858C13.7893 10.9609 14 11.4696 14 12ZM4 10C3.60444 10 3.21776 10.1173 2.88886 10.3371C2.55996 10.5568 2.30362 10.8692 2.15224 11.2346C2.00087 11.6001 1.96126 12.0022 2.03843 12.3902C2.1156 12.7781 2.30608 13.1345 2.58579 13.4142C2.86549 13.6939 3.22186 13.8844 3.60982 13.9616C3.99778 14.0387 4.39992 13.9991 4.76537 13.8478C5.13082 13.6964 5.44318 13.44 5.66294 13.1111C5.8827 12.7822 6 12.3956 6 12C6 11.4696 5.78929 10.9609 5.41421 10.5858C5.03914 10.2107 4.53043 10 4 10ZM20 10C19.6044 10 19.2178 10.1173 18.8889 10.3371C18.56 10.5568 18.3036 10.8692 18.1522 11.2346C18.0009 11.6001 17.9613 12.0022 18.0384 12.3902C18.1156 12.7781 18.3061 13.1345 18.5858 13.4142C18.8655 13.6939 19.2219 13.8844 19.6098 13.9616C19.9978 14.0387 20.3999 13.9991 20.7654 13.8478C21.1308 13.6964 21.4432 13.44 21.6629 13.1111C21.8827 12.7822 22 12.3956 22 12C22 11.4696 21.7893 10.9609 21.4142 10.5858C21.0391 10.2107 20.5304 10 20 10Z" fill="#666666"/>
</svg>
