<svg width="24" height="24" viewBox="0 0 24 24" fill="#none" xmlns="http://www.w3.org/2000/svg">
<path d="M21.84 18.66L16.95 13.77C17.9239 12.0284 18.2348 9.99328 17.8253 8.04035C17.4159 6.08742 16.3138 4.34855 14.7225 3.14473C13.1311 1.94092 11.158 1.35346 9.16733 1.4908C7.17667 1.62814 5.30291 2.48101 3.89196 3.89196C2.48101 5.30291 1.62814 7.17667 1.4908 9.16733C1.35346 11.158 1.94092 13.1311 3.14473 14.7225C4.34855 16.3138 6.08742 17.4159 8.04035 17.8253C9.99328 18.2348 12.0284 17.9239 13.77 16.95L18.66 21.84C18.866 22.0611 19.1144 22.2384 19.3904 22.3613C19.6664 22.4843 19.9643 22.5504 20.2664 22.5558C20.5685 22.5611 20.8686 22.5055 21.1488 22.3924C21.4289 22.2792 21.6834 22.1108 21.8971 21.8971C22.1108 21.6834 22.2792 21.4289 22.3924 21.1488C22.5055 20.8686 22.5611 20.5685 22.5558 20.2664C22.5504 19.9643 22.4843 19.6664 22.3613 19.3904C22.2384 19.1144 22.0611 18.866 21.84 18.66ZM4.49999 9.74999C4.49999 8.71164 4.8079 7.69661 5.38478 6.83325C5.96165 5.96989 6.78159 5.29698 7.7409 4.89962C8.70022 4.50226 9.75581 4.3983 10.7742 4.60087C11.7926 4.80344 12.7281 5.30346 13.4623 6.03768C14.1965 6.77191 14.6965 7.70737 14.8991 8.72577C15.1017 9.74417 14.9977 10.7998 14.6004 11.7591C14.203 12.7184 13.5301 13.5383 12.6667 14.1152C11.8034 14.6921 10.7883 15 9.74999 15C8.3576 15 7.02225 14.4469 6.03768 13.4623C5.05312 12.4777 4.49999 11.1424 4.49999 9.74999Z" fill="#737678" fill-opacity="0.9"/>
</svg>
