<svg width="24" height="24" viewBox="0 0 24 24" fill="none" xmlns="http://www.w3.org/2000/svg">
<path d="M19.46 11L15.55 7.08999C14.7815 6.32035 14.2028 5.38221 13.86 4.34999L13.37 2.87999C13.1861 2.33314 12.8353 1.85769 12.3672 1.52047C11.899 1.18326 11.337 1.00123 10.76 0.999988C10.3989 0.998672 10.041 1.0685 9.70687 1.20549C9.37272 1.34247 9.06882 1.54393 8.81253 1.79837C8.55624 2.0528 8.35258 2.35522 8.21317 2.68837C8.07375 3.02151 8.00132 3.37885 8.00001 3.73999V4.85999C8.00224 5.82829 8.15749 6.79015 8.46001 7.70999L8.89001 8.99999H4.12001C3.55775 8.99999 3.01852 9.22334 2.62095 9.62092C2.22337 10.0185 2.00001 10.5577 2.00001 11.12C2.00139 11.4656 2.08566 11.8057 2.24575 12.112C2.40583 12.4182 2.63706 12.6816 2.92001 12.88C2.6368 13.0734 2.405 13.333 2.2447 13.6361C2.08439 13.9393 2.0004 14.277 2.00001 14.62C1.99207 15.0425 2.10938 15.4579 2.33717 15.8138C2.56496 16.1697 2.89303 16.4502 3.28001 16.62C3.10026 16.9229 3.00367 17.2678 3.00001 17.62C2.99914 18.1621 3.20595 18.6839 3.57794 19.0782C3.94992 19.4725 4.45881 19.7093 5.00001 19.74V19.88C5.00001 20.4422 5.22337 20.9815 5.62095 21.3791C6.01852 21.7766 6.55775 22 7.12001 22H14.61C15.852 21.9989 17.0771 21.7114 18.19 21.16L18.5 21H21V11H19.46ZM19 19H18L17.27 19.37C16.4328 19.7816 15.5129 19.9971 14.58 20H7.72001C7.49687 20.0089 7.27717 19.9428 7.09594 19.8123C6.91471 19.6818 6.78237 19.4944 6.72001 19.28L6.47001 18.41L5.62001 18C5.42424 17.9202 5.25877 17.7805 5.14738 17.6008C5.03598 17.4212 4.98439 17.2108 5.00001 17L5.17001 16L4.41001 15.26C4.24466 15.0985 4.14036 14.8847 4.11483 14.655C4.08931 14.4253 4.14414 14.1938 4.27001 14L4.93001 12.91L4.20001 11.81C4.15824 11.7592 4.12712 11.7006 4.10849 11.6375C4.08986 11.5745 4.0841 11.5083 4.09157 11.443C4.09903 11.3777 4.11956 11.3146 4.15194 11.2573C4.18431 11.2001 4.22787 11.15 4.28001 11.11C4.37496 11.0309 4.49675 10.9915 4.62001 11H11.67L10.36 7.07999C10.1211 6.36423 9.99958 5.61455 10 4.85999V3.74999C10.0051 3.55267 10.0857 3.36483 10.2253 3.22526C10.3649 3.08569 10.5527 3.00505 10.75 2.99999C10.9068 3.00011 11.0596 3.04937 11.187 3.14085C11.3144 3.23233 11.4098 3.36143 11.46 3.50999L12 4.99999C12.4315 6.3149 13.1604 7.5126 14.13 8.49999L18.63 13H19V19Z" fill="#666666"/>
</svg>
