<svg width="24" height="24" viewBox="0 0 24 24" fill="none" xmlns="http://www.w3.org/2000/svg">
<path d="M23 12L18.39 19H16L20 13H8C7.48519 12.9894 6.97333 13.0803 6.49367 13.2676C6.014 13.4548 5.57593 13.7347 5.20448 14.0913C4.83302 14.4479 4.53546 14.8742 4.32879 15.3458C4.12212 15.8175 4.0104 16.3252 4 16.84V17C3.99772 17.4208 4.06184 17.8392 4.19 18.24L5.12 21H3L2.27 18.78C2.09089 18.1831 1.99993 17.5632 2 16.94C2.01581 15.3591 2.65492 13.8484 3.77843 12.7361C4.90194 11.6238 6.41904 10.9999 8 11H20L16 5H18.39L23 12Z" fill="#666666"/>
</svg>
