<svg width="16" height="16" viewBox="0 0 16 16" fill="none" xmlns="http://www.w3.org/2000/svg">
<path d="M13.3333 13.3333C13.5443 13.1251 13.7119 12.877 13.8264 12.6035C13.9408 12.33 13.9998 12.0365 14 11.74V4.25333C14 3.65571 13.7626 3.08257 13.34 2.65999C12.9174 2.2374 12.3442 2 11.7466 2H4.25329C3.95793 2.00103 3.66568 2.06046 3.39338 2.17487C3.12107 2.28928 2.87408 2.45642 2.66663 2.66667L13.3333 13.3333Z" fill="#F8C77E"/>
<path d="M2.66667 2.66666C2.45642 2.87411 2.28928 3.1211 2.17487 3.39341C2.06046 3.66571 2.00103 3.95796 2 4.25332V11.7467C2 12.3443 2.2374 12.9174 2.65999 13.34C3.08257 13.7626 3.65571 14 4.25333 14H11.7467C12.042 13.999 12.3343 13.9395 12.6066 13.8251C12.8789 13.7107 13.1259 13.5436 13.3333 13.3333L2.66667 2.66666Z" fill="#E7A33E"/>
</svg>
