<svg width="24" height="24" viewBox="0 0 24 24" fill="none" xmlns="http://www.w3.org/2000/svg">
<path d="M3 3V18C3 18.7956 3.31607 19.5587 3.87868 20.1213C4.44129 20.6839 5.20435 21 6 21H18C18.7956 21 19.5587 20.6839 20.1213 20.1213C20.6839 19.5587 21 18.7956 21 18V3H3ZM16 4.75C16.2472 4.75 16.4889 4.82331 16.6945 4.96066C16.9 5.09801 17.0602 5.29324 17.1549 5.52165C17.2495 5.75005 17.2742 6.00139 17.226 6.24386C17.1777 6.48634 17.0587 6.70907 16.8839 6.88388C16.7091 7.0587 16.4863 7.17775 16.2439 7.22598C16.0014 7.27421 15.7501 7.24946 15.5216 7.15485C15.2932 7.06024 15.098 6.90002 14.9607 6.69446C14.8233 6.4889 14.75 6.24723 14.75 6C14.75 5.66848 14.8817 5.35054 15.1161 5.11612C15.3505 4.8817 15.6685 4.75 16 4.75ZM8 4.75C8.24723 4.75 8.4889 4.82331 8.69446 4.96066C8.90002 5.09801 9.06024 5.29324 9.15485 5.52165C9.24946 5.75005 9.27421 6.00139 9.22598 6.24386C9.17775 6.48634 9.0587 6.70907 8.88388 6.88388C8.70907 7.0587 8.48634 7.17775 8.24386 7.22598C8.00139 7.27421 7.75005 7.24946 7.52165 7.15485C7.29324 7.06024 7.09801 6.90002 6.96066 6.69446C6.82331 6.4889 6.75 6.24723 6.75 6C6.75 5.66848 6.8817 5.35054 7.11612 5.11612C7.35054 4.8817 7.66848 4.75 8 4.75ZM19 18C19 18.2652 18.8946 18.5196 18.7071 18.7071C18.5196 18.8946 18.2652 19 18 19H6C5.73478 19 5.48043 18.8946 5.29289 18.7071C5.10536 18.5196 5 18.2652 5 18V9H19V18ZM13.1 15C13.1 14.7348 12.9946 14.4804 12.8071 14.2929C12.6196 14.1054 12.3652 14 12.1 14H12C11.658 14.0114 11.3201 14.0789 11 14.2L10 14V11H13.9V12H11V13.15C11.341 13.0498 11.6946 12.9993 12.05 13C12.2983 12.9851 12.5471 13.0194 12.7821 13.1009C13.0171 13.1824 13.2337 13.3094 13.4195 13.4748C13.6053 13.6402 13.7567 13.8406 13.8649 14.0646C13.9731 14.2885 14.036 14.5317 14.05 14.78V15C14.0607 15.2522 14.0216 15.504 13.9349 15.7411C13.8482 15.9781 13.7156 16.1958 13.5447 16.3815C13.3738 16.5673 13.168 16.7175 12.9389 16.8237C12.7099 16.9298 12.4622 16.9897 12.21 17H12C11.5028 17.0329 11.0128 16.8671 10.6378 16.539C10.2628 16.2108 10.0334 15.7472 10 15.25C9.98954 15.167 9.98954 15.083 10 15H11C10.9819 15.1356 10.9953 15.2735 11.0391 15.4031C11.083 15.5327 11.1561 15.6504 11.2528 15.7472C11.3496 15.8439 11.4673 15.917 11.5969 15.9609C11.7265 16.0047 11.8644 16.0181 12 16H12.1C12.2235 16.0081 12.3474 15.9918 12.4646 15.9519C12.5817 15.9121 12.6899 15.8495 12.7828 15.7677C12.8757 15.6859 12.9515 15.5866 13.006 15.4755C13.0604 15.3643 13.0924 15.2435 13.1 15.12V15Z" fill="#c37e25"/>
</svg>
