<svg width="24" height="24" viewBox="0 0 24 24" fill="none" xmlns="http://www.w3.org/2000/svg">
<path d="M19 4H5C4.20435 4 3.44129 4.31607 2.87868 4.87868C2.31607 5.44129 2 6.20435 2 7V17C2 17.7956 2.31607 18.5587 2.87868 19.1213C3.44129 19.6839 4.20435 20 5 20H19C19.7956 20 20.5587 19.6839 21.1213 19.1213C21.6839 18.5587 22 17.7956 22 17V7C22 6.20435 21.6839 5.44129 21.1213 4.87868C20.5587 4.31607 19.7956 4 19 4ZM20 17C20.0008 17.1316 19.9755 17.2621 19.9258 17.3839C19.876 17.5057 19.8027 17.6166 19.71 17.71L16 14L14 16L8 10L4 14V7C4 6.73478 4.10536 6.48043 4.29289 6.29289C4.48043 6.10536 4.73478 6 5 6H19C19.2652 6 19.5196 6.10536 19.7071 6.29289C19.8946 6.48043 20 6.73478 20 7V17ZM18 10C18 10.3956 17.8827 10.7822 17.6629 11.1111C17.4432 11.44 17.1308 11.6964 16.7654 11.8478C16.3999 11.9991 15.9978 12.0387 15.6098 11.9616C15.2219 11.8844 14.8655 11.6939 14.5858 11.4142C14.3061 11.1345 14.1156 10.7781 14.0384 10.3902C13.9613 10.0022 14.0009 9.60009 14.1522 9.23463C14.3036 8.86918 14.56 8.55682 14.8889 8.33706C15.2178 8.1173 15.6044 8 16 8C16.5304 8 17.0391 8.21071 17.4142 8.58579C17.7893 8.96086 18 9.46957 18 10Z" fill="#378fe9"/>
</svg>
